# xmcd
#
# Track frame offsets: 
#        150
#        19096
#        41416
#        68329
#        93126
#        94879
#        117825
#        137328
#        152781
#        173364
#        197322
#        220098
#        250130
#        272999
#
# Disc length: 4098 seconds
#
# Revision: 0
# Processed by: cddbd v1.5.2PL0 Copyright (c) Steve Scherf et al.
# Submitted via: ExactAudioCopy v1.0b6
#
DISCID=a810000e
DTITLE=石田長生 - The Best of Ishiyan  DISC1
DYEAR=2016
DGENRE=Blues
TTITLE0=最後の本音
TTITLE1=Happy Ghetto Song
TTITLE2=Everybody 毎度! On The Street
TTITLE3=ラ・ジ・カ・セ
TTITLE4=Pisco
TTITLE5=Boat Club Road
TTITLE6=星空
TTITLE7=The Horse
TTITLE8=もういいかい?まだだよ! 
TTITLE9=Brothers And Sisters
TTITLE10=汚職
TTITLE11=The Weight(feat. 西慎嗣、仲井戸CHABO 麗市 and Char)
TTITLE12=Pink and Blue
TTITLE13=青洟小僧 *未発表音源 
EXTD=
EXTT0=
EXTT1=
EXTT2=
EXTT3=
EXTT4=
EXTT5=
EXTT6=
EXTT7=
EXTT8=
EXTT9=
EXTT10=
EXTT11=
EXTT12=
EXTT13=
PLAYORDER=
